<?xml version="1.0" encoding="utf-8"?>
<!-- Generator: Adobe Illustrator 21.0.0, SVG Export Plug-In . SVG Version: 6.00 Build 0)  -->
<svg version="1.1" id="图层_1" xmlns="http://www.w3.org/2000/svg" xmlns:xlink="http://www.w3.org/1999/xlink" x="0px" y="0px"
	 width="86.1px" height="15px" viewBox="0 0 86.1 15" style="enable-background:new 0 0 86.1 15;" xml:space="preserve">
<style type="text/css">
	.st0{display:none;}
	.st1{display:inline;}
	.st2{fill:#AF1E24;}
	.st3{fill:#FFFFFF;}
</style>
<g id="图层_3" class="st0">
	<g class="st1">
		<g>
			<g id="LOGO1_1_">
				<g id="LOGO_1_">
					<g>
						<path class="st2" d="M13.9,3.2c1.8,0,3.2,1.4,3.2,3.2s-1.4,3.2-3.2,3.2s-3.2-1.4-3.2-3.2S12.2,3.2,13.9,3.2z"/>
						<path class="st2" d="M18.1,7.3c1.8,0,3.2,1.4,3.2,3.2s-1.4,3.2-3.2,3.2s-3.2-1.4-3.2-3.2C15,8.8,16.4,7.3,18.1,7.3z"/>
						<path class="st2" d="M10.7,6.4h5.7v7.3c0,0-4.3,0-5.4,0c-0.2,0-2,0-2,0s1.6-1.3,1.7-3.7C10.7,9.8,10.7,6.4,10.7,6.4z"/>
						<rect x="14.2" y="9.9" class="st2" width="3.8" height="3.8"/>
					</g>
					<g>
						<path class="st3" d="M18.3,6.1C18.1,3.8,16.2,2,13.9,2c-2.5,0-4.4,2-4.4,4.4c0,0,0,1.7,0,3.9C9.3,12.9,5.6,15,5.6,15
							s4.5,0,5.5,0c2.5,0,7,0,7,0c2.5,0,4.4-2,4.4-4.4S20.6,6.2,18.3,6.1z M18,13.7h-1.6l0,0c0,0-4.3,0-5.4,0c-0.2,0-2,0-2,0
							s1.6-1.3,1.7-3.7c0-0.2,0-3.6,0-3.6c0-1.8,1.4-3.2,3.2-3.2s3.2,1.4,3.2,3.2c0,0.4-0.1,0.8-0.2,1.2c0.4-0.1,0.8-0.2,1.2-0.2
							c1.8,0,3.2,1.4,3.2,3.2C21.2,12.3,19.8,13.7,18,13.7z"/>
					</g>
					<g>
						<path class="st3" d="M5.1,13.7C3,13.7,1.3,12,1.3,9.9c0-1.3,0.6-2.4,1.6-3.1c0-0.3-0.1-0.6-0.1-0.9c0-0.2,0-0.3,0-0.5
							C1.2,6.1,0,7.9,0,9.9C0,12.7,2.3,15,5.1,15V13.7z"/>
					</g>
					<g>
						<path class="st3" d="M9.5,9.9c0,2.1-1.7,3.8-3.8,3.8l0,0c0,0.2,0,0.3,0,0.5c0,0.3,0,0.5-0.1,0.8l0,0c2.8,0,5.1-2.3,5.1-5.1
							H9.5z"/>
					</g>
					<g>
						<path class="st3" d="M6.3,8.7C5.7,8,5.4,7,5.4,6c0-2.5,2-4.4,4.4-4.4c0.3,0,0.6,0,1,0.1c0.5-0.3,1.1-0.6,1.7-0.7
							c-0.8-0.4-1.7-0.6-2.6-0.6C6.6,0.3,4.1,2.8,4.1,6c0,1.4,0.5,2.8,1.4,3.8C5.7,9.4,6,9,6.3,8.7z"/>
					</g>
					<rect x="5" y="13.7" class="st3" width="1.2" height="1.3"/>
				</g>
			</g>
		</g>
		<g>
			<path class="st3" d="M33.6,10.8h-4.3l-0.9,3.4h-2.7L30,1h3.1l4.3,13.2h-2.8L33.6,10.8z M33,8.8l-0.4-1.4c-0.4-1.4-0.7-3-1.1-4.4
				h-0.1c-0.3,1.4-0.7,3-1.1,4.3l-0.4,1.4H33V8.8z"/>
			<path class="st3" d="M38.7,1h2.6v13.2h-2.6V1z"/>
			<path class="st3" d="M43.1,12.5l0.9-1c0.9,1,2.3,1.7,3.7,1.7c1.8,0,2.9-0.9,2.9-2.3s-1-1.9-2.2-2.4l-1.9-0.8
				c-1.2-0.5-2.7-1.4-2.7-3.3c0-2,1.7-3.4,4-3.4c1.6,0,2.9,0.7,3.8,1.6l-0.8,0.9c-0.8-0.8-1.8-1.3-3-1.3c-1.5,0-2.5,0.8-2.5,2
				c0,1.3,1.2,1.8,2.2,2.3l1.9,0.8c1.5,0.7,2.7,1.6,2.7,3.5c0,2.1-1.7,3.7-4.4,3.7C45.8,14.5,44.3,13.7,43.1,12.5z"/>
			<path class="st3" d="M54.1,11.3V5.8h-1.5V4.7l1.5-0.1l0.2-2.7h1.2v2.7h2.7v1.2h-2.7v5.6c0,1.2,0.4,1.9,1.5,1.9
				c0.4,0,0.8-0.1,1.1-0.3l0.3,1.1c-0.5,0.2-1.2,0.4-1.7,0.4C54.7,14.5,54.1,13.2,54.1,11.3z"/>
			<path class="st3" d="M59.5,11.8c0-2.1,1.8-3.1,6-3.6c0-1.3-0.4-2.6-2.1-2.6c-1.2,0-2.2,0.6-2.9,1.1l-0.6-1
				c0.8-0.6,2.2-1.3,3.8-1.3C66,4.4,67,6,67,8.3v6h-1.2l-0.1-1.2h-0.1c-0.9,0.8-2,1.4-3.3,1.4C60.7,14.5,59.5,13.5,59.5,11.8z
				 M65.5,12V9.1c-3.4,0.4-4.6,1.2-4.6,2.5c0,1.2,0.8,1.6,1.8,1.6S64.5,12.8,65.5,12z"/>
			<path class="st3" d="M68.9,9.4c0-3.2,2.1-5.1,4.6-5.1c1.3,0,2.1,0.5,2.8,1.2l-0.8,1c-0.6-0.5-1.2-0.9-2-0.9
				c-1.8,0-3.1,1.6-3.1,3.9s1.3,3.8,3.1,3.8c0.9,0,1.7-0.4,2.3-1l0.6,1c-0.9,0.8-1.9,1.2-3.1,1.2C70.9,14.5,68.9,12.6,68.9,9.4z"/>
			<path class="st3" d="M78.2,0h1.4v9.9h0.1L84,4.6h1.6l-3.2,3.9l3.7,5.8h-1.6l-2.9-4.8l-1.9,2.2v2.6h-1.4L78.2,0L78.2,0z"/>
		</g>
	</g>
</g>
<g id="图层_2">
	<g>
		<g>
			<g id="LOGO1">
				<g id="LOGO">
					<g>
						<path class="st2" d="M13.9,3.1c1.8,0,3.2,1.4,3.2,3.2s-1.4,3.2-3.2,3.2s-3.2-1.4-3.2-3.2S12.2,3.1,13.9,3.1z"/>
						<path class="st2" d="M18.1,7.3c1.8,0,3.2,1.4,3.2,3.2s-1.4,3.2-3.2,3.2c-1.8,0-3.2-1.4-3.2-3.2C15,8.8,16.4,7.3,18.1,7.3z"/>
						<path class="st2" d="M10.7,6.4h5.7v7.3c0,0-4.3,0-5.4,0c-0.2,0-2,0-2,0s1.6-1.3,1.7-3.7C10.7,9.8,10.7,6.4,10.7,6.4z"/>
						<rect x="14.2" y="6.5" class="st2" width="3.8" height="7.2"/>
					</g>
					<g>
						<path class="st3" d="M18.3,6.1C18.1,3.8,16.2,2,13.9,2c-2.5,0-4.4,2-4.4,4.4c0,0,0,1.7,0,3.9C9.3,12.9,5.6,15,5.6,15
							s4.5,0,5.5,0c2.5,0,7,0,7,0c2.5,0,4.4-2,4.4-4.4S20.6,6.2,18.3,6.1z M18,13.7h-1.6l0,0c0,0-4.3,0-5.4,0c-0.2,0-2,0-2,0
							s1.6-1.3,1.7-3.7c0-0.2,0-3.6,0-3.6c0-1.8,1.4-3.2,3.2-3.2s3.2,1.4,3.2,3.2c0,0.4-0.1,0.8-0.2,1.2c0.4-0.1,0.8-0.2,1.2-0.2
							c1.8,0,3.2,1.4,3.2,3.2C21.2,12.3,19.8,13.7,18,13.7z"/>
					</g>
					<g>
						<path class="st3" d="M5.1,13.7C3,13.7,1.3,12,1.3,9.9c0-1.3,0.6-2.4,1.6-3.1c0-0.3-0.1-0.6-0.1-0.9c0-0.2,0-0.3,0-0.5
							C1.2,6.1,0,7.9,0,9.9C0,12.7,2.3,15,5.1,15V13.7z"/>
					</g>
					<g>
						<path class="st3" d="M9.5,9.9c0,2.1-1.7,3.8-3.8,3.8l0,0c0,0.2,0,0.3,0,0.5c0,0.3,0,0.5-0.1,0.8l0,0c2.8,0,5.1-2.3,5.1-5.1
							H9.5z"/>
					</g>
					<g>
						<path class="st3" d="M6.3,8.7C5.7,8,5.4,7,5.4,6c0-2.5,2-4.4,4.4-4.4c0.3,0,0.6,0,1,0.1c0.5-0.3,1.1-0.6,1.7-0.7
							c-0.8-0.4-1.7-0.6-2.6-0.6C6.6,0.3,4.1,2.8,4.1,6c0,1.4,0.5,2.8,1.4,3.8C5.7,9.4,6,9,6.3,8.7z"/>
					</g>
					<rect x="5" y="13.7" class="st3" width="1.2" height="1.3"/>
				</g>
			</g>
		</g>
		<g>
			<path class="st3" d="M33.6,10.8h-4.3l-0.9,3.4h-2.7L30,1h3.1l4.3,13.2h-2.8L33.6,10.8z M33,8.8l-0.4-1.4c-0.4-1.4-0.7-3-1.1-4.4
				h-0.1c-0.3,1.4-0.7,3-1.1,4.3l-0.4,1.4H33V8.8z"/>
			<path class="st3" d="M38.7,1h2.6v13.2h-2.6V1z"/>
			<path class="st3" d="M43.1,12.5l0.9-1c0.9,1,2.3,1.7,3.7,1.7c1.8,0,2.9-0.9,2.9-2.3s-1-1.9-2.2-2.4l-1.9-0.8
				c-1.2-0.5-2.7-1.4-2.7-3.3c0-2,1.7-3.4,4-3.4c1.6,0,2.9,0.7,3.8,1.6l-0.8,0.9c-0.8-0.8-1.8-1.3-3-1.3c-1.5,0-2.5,0.8-2.5,2
				c0,1.3,1.2,1.8,2.2,2.3l1.9,0.8c1.5,0.7,2.7,1.6,2.7,3.5c0,2.1-1.7,3.7-4.4,3.7C45.8,14.5,44.3,13.7,43.1,12.5z"/>
			<path class="st3" d="M54.1,11.3V5.8h-1.5V4.7l1.5-0.1l0.2-2.7h1.2v2.7h2.7v1.2h-2.7v5.6c0,1.2,0.4,1.9,1.5,1.9
				c0.4,0,0.8-0.1,1.1-0.3l0.3,1.1c-0.5,0.2-1.2,0.4-1.7,0.4C54.7,14.5,54.1,13.2,54.1,11.3z"/>
			<path class="st3" d="M59.5,11.8c0-2.1,1.8-3.1,6-3.6c0-1.3-0.4-2.6-2.1-2.6c-1.2,0-2.2,0.6-2.9,1.1l-0.6-1
				c0.8-0.6,2.2-1.3,3.8-1.3C66,4.4,67,6,67,8.3v6h-1.2l-0.1-1.2h-0.1c-0.9,0.8-2,1.4-3.3,1.4C60.7,14.5,59.5,13.5,59.5,11.8z
				 M65.5,12V9.1c-3.4,0.4-4.6,1.2-4.6,2.5c0,1.2,0.8,1.6,1.8,1.6S64.5,12.8,65.5,12z"/>
			<path class="st3" d="M68.9,9.4c0-3.2,2.1-5.1,4.6-5.1c1.3,0,2.1,0.5,2.8,1.2l-0.8,1c-0.6-0.5-1.2-0.9-2-0.9
				c-1.8,0-3.1,1.6-3.1,3.9s1.3,3.8,3.1,3.8c0.9,0,1.7-0.4,2.3-1l0.6,1c-0.9,0.8-1.9,1.2-3.1,1.2C70.9,14.5,68.9,12.6,68.9,9.4z"/>
			<path class="st3" d="M78.2,0h1.4v9.9h0.1L84,4.6h1.6l-3.2,3.9l3.7,5.8h-1.6l-2.9-4.8l-1.9,2.2v2.6h-1.4L78.2,0L78.2,0z"/>
		</g>
	</g>
</g>
</svg>
